<svg width="24.986328" height="21.608398" viewBox="0 0 24.9863 21.6084" fill="none" xmlns="http://www.w3.org/2000/svg" xmlns:xlink="http://www.w3.org/1999/xlink">
	<desc>
			Created with Pixso.
	</desc>
	<defs>
		<clipPath id="clip2_6946">
			<rect id="Icons-instagram" width="14.575342" height="12.604972" transform="translate(5.205566 4.502441)" fill="white" fill-opacity="0"/>
		</clipPath>
	</defs>
	<ellipse id="Ellipse 9" cx="12.493164" cy="10.804199" rx="12.493151" ry="10.804261" fill="#FFB400" fill-opacity="1.000000"/>
	<rect id="Icons-instagram" width="14.575342" height="12.604972" transform="translate(5.205566 4.502441)" fill="#FFFFFF" fill-opacity="0"/>
	<rect id="Icons-instagram" width="14.575342" height="12.604972" transform="translate(5.205566 4.502441)" fill="#FFFFFF" fill-opacity="0"/>
	<rect id="Icons-instagram" width="14.575342" height="12.604972" transform="translate(5.205566 4.502441)" fill="#FFFFFF" fill-opacity="0"/>
	<g clip-path="url(#clip2_6946)">
		<path id="Vector" d="M12.4937 5.55273C14.1436 5.55273 14.3496 5.55811 14.9966 5.58447C15.6436 5.61035 16.084 5.69824 16.4712 5.82861C16.8721 5.96191 17.21 6.14258 17.5474 6.43408C17.8564 6.69678 18.0952 7.01416 18.2476 7.36475C18.3975 7.69922 18.4995 8.08057 18.5303 8.64014C18.5586 9.19971 18.5664 9.37793 18.5664 10.8047C18.5664 12.2319 18.5605 12.4097 18.5303 12.9697C18.4995 13.5293 18.3975 13.9097 18.2476 14.2451C18.0957 14.5957 17.8564 14.9131 17.5474 15.1758C17.2437 15.4424 16.8765 15.6494 16.4712 15.7812C16.0845 15.9106 15.6436 15.999 14.9966 16.0254C14.3496 16.0503 14.1436 16.0566 12.4937 16.0566C10.8433 16.0566 10.6377 16.0518 9.99023 16.0254C9.34326 15.999 8.90332 15.9106 8.51562 15.7812C8.11035 15.6494 7.74268 15.4429 7.43945 15.1758C7.13037 14.9131 6.8916 14.5957 6.73926 14.2451C6.58887 13.9102 6.4873 13.5293 6.45703 12.9697C6.42822 12.4097 6.42041 12.2319 6.42041 10.8047C6.42041 9.37793 6.42627 9.19971 6.45703 8.64014C6.4873 8.08008 6.58887 7.69971 6.73926 7.36475C6.89111 7.01416 7.13037 6.69629 7.43945 6.43408C7.74316 6.16699 8.11035 5.95996 8.51562 5.82861C8.90332 5.69824 9.34277 5.61035 9.99023 5.58447C10.6377 5.55957 10.8433 5.55273 12.4937 5.55273ZM12.4937 8.17871C11.688 8.17871 10.916 8.45557 10.3462 8.94775C9.77686 9.44043 9.45703 10.1084 9.45703 10.8047C9.45703 11.5015 9.77686 12.1694 10.3462 12.6616C10.916 13.1543 11.688 13.4307 12.4937 13.4307C13.2988 13.4307 14.0713 13.1543 14.6406 12.6616C15.21 12.1694 15.5298 11.5015 15.5298 10.8047C15.5298 10.1084 15.21 9.44043 14.6406 8.94775C14.0713 8.45557 13.2988 8.17871 12.4937 8.17871ZM16.4409 8.04736C16.4409 7.87354 16.3608 7.70654 16.2188 7.58301C16.0762 7.45996 15.8833 7.39111 15.6816 7.39111C15.4805 7.39111 15.2876 7.45996 15.145 7.58301C15.0024 7.70654 14.9229 7.87354 14.9229 8.04736C14.9229 8.22168 15.0024 8.38867 15.145 8.51172C15.2876 8.63477 15.4805 8.7041 15.6816 8.7041C15.8833 8.7041 16.0762 8.63477 16.2188 8.51172C16.3608 8.38867 16.4409 8.22168 16.4409 8.04736ZM12.4937 9.229C12.9766 9.229 13.4399 9.39502 13.7817 9.69043C14.1235 9.98633 14.3154 10.3867 14.3154 10.8047C14.3154 11.2227 14.1235 11.6235 13.7817 11.9189C13.4399 12.2144 12.9766 12.3804 12.4937 12.3804C12.0103 12.3804 11.5469 12.2144 11.2051 11.9189C10.8633 11.6235 10.6714 11.2227 10.6714 10.8047C10.6714 10.3867 10.8633 9.98633 11.2051 9.69043C11.5469 9.39502 12.0103 9.229 12.4937 9.229Z" fill="#2B2B2B" fill-opacity="1.000000" fill-rule="nonzero"/>
	</g>
</svg>
