<svg width="65.000000" height="78.000000" viewBox="0 0 65 78" fill="none" xmlns="http://www.w3.org/2000/svg" xmlns:xlink="http://www.w3.org/1999/xlink">
	<desc>
			Created with Pixso.
	</desc>
	<defs>
		<clipPath id="clip2_6685">
			<rect id="Icons/Home" width="18.000000" height="18.000000" transform="translate(24.000000 49.000000)" fill="white" fill-opacity="0"/>
		</clipPath>
	</defs>
	<path id="Union" d="M2 0L63 0C64.1045 0 65 0.895508 65 2L65 22C65 23.1045 64.1045 24 63 24L37.196 24L32 33L26.804 24L2 24C0.895508 24 0 23.1045 0 22L0 2C0 0.895508 0.895508 0 2 0Z" clip-rule="evenodd" fill="#2B2B2B" fill-opacity="1.000000" fill-rule="evenodd"/>
	<path id="Home" d="M15.958 18L17.2764 18L17.2764 14.1943L21.627 14.1943L21.627 18L22.9482 18L22.9482 9.27246L21.627 9.27246L21.627 13.0664L17.2764 13.0664L17.2764 9.27246L15.958 9.27246L15.958 18ZM27.5186 18.1318C29.3643 18.1318 30.5713 16.7812 30.5713 14.7568C30.5713 12.7207 29.3643 11.3701 27.5186 11.3701C25.6758 11.3701 24.4688 12.7207 24.4688 14.7568C24.4688 16.7812 25.6758 18.1318 27.5186 18.1318ZM27.5244 17.0625C26.3174 17.0625 25.7549 16.0107 25.7549 14.7539C25.7549 13.5 26.3174 12.4336 27.5244 12.4336C28.7227 12.4336 29.2852 13.5 29.2852 14.7539C29.2852 16.0107 28.7227 17.0625 27.5244 17.0625ZM31.989 18L33.2634 18L33.2634 13.9658C33.2634 13.0811 33.8816 12.4688 34.6052 12.4688C35.3142 12.4688 35.8034 12.9375 35.8034 13.6494L35.8034 18L37.0749 18L37.0749 13.8281C37.0749 13.04 37.5554 12.4688 38.3874 12.4688C39.0583 12.4688 39.615 12.8438 39.615 13.7314L39.615 18L40.8865 18L40.8865 13.6113C40.8865 12.1143 40.0515 11.3701 38.8679 11.3701C37.9275 11.3701 37.2185 11.8213 36.9021 12.5186L36.8347 12.5186C36.5505 11.8037 35.9499 11.3701 35.074 11.3701C34.2097 11.3701 33.5681 11.8008 33.2927 12.5186L33.2136 12.5186L33.2136 11.4551L31.989 11.4551L31.989 18ZM45.4126 18.1318C46.8422 18.1318 47.8501 17.4287 48.1401 16.3623L46.936 16.1455C46.7045 16.7637 46.1508 17.0801 45.4272 17.0801C44.3344 17.0801 43.602 16.3711 43.5668 15.1113L48.2221 15.1113L48.2221 14.6602C48.2221 12.293 46.8071 11.3701 45.3247 11.3701C43.4995 11.3701 42.2983 12.7588 42.2983 14.7686C42.2983 16.8018 43.4819 18.1318 45.4126 18.1318ZM43.5727 14.1562C43.6225 13.2275 44.2963 12.4219 45.3335 12.4219C46.3208 12.4219 46.9682 13.1543 46.9741 14.1562L43.5727 14.1562Z" fill="#FFFFFF" fill-opacity="1.000000" fill-rule="evenodd"/>
	<circle id="Ellipse 10" cx="33.000000" cy="58.000000" r="20.000000" fill="#FFB400" fill-opacity="1.000000"/>
	<rect id="Icons/Home" width="18.000000" height="18.000000" transform="translate(24.000000 49.000000)" fill="#FFFFFF" fill-opacity="0"/>
	<rect id="Icons/Home" width="18.000000" height="18.000000" transform="translate(24.000000 49.000000)" fill="#FFFFFF" fill-opacity="0"/>
	<rect id="Icons/Home" width="18.000000" height="18.000000" transform="translate(24.000000 49.000000)" fill="#FFFFFF" fill-opacity="0"/>
	<rect id="Icons/Home" width="18.000000" height="18.000000" transform="translate(24.000000 49.000000)" fill="#FFFFFF" fill-opacity="0"/>
	<g clip-path="url(#clip2_6685)">
		<path id="Vector" d="M39 64C39 64.1987 38.9209 64.3896 38.7803 64.5303C38.6396 64.6709 38.449 64.75 38.25 64.75L27.75 64.75C27.551 64.75 27.3604 64.6709 27.2197 64.5303C27.0791 64.3896 27 64.1987 27 64L27 57.25L24.75 57.25L32.4954 50.209C32.6333 50.0835 32.8132 50.0137 33 50.0137C33.1868 50.0137 33.3667 50.0835 33.5046 50.209L41.25 57.25L39 57.25L39 64Z" fill="#2B2B2B" fill-opacity="1.000000" fill-rule="nonzero"/>
	</g>
</svg>
