<svg width="30.000000" height="30.000000" viewBox="0 0 30 30" fill="none" xmlns="http://www.w3.org/2000/svg" xmlns:xlink="http://www.w3.org/1999/xlink">
	<desc>
			Created with Pixso.
	</desc>
	<defs>
		<clipPath id="clip2_6707">
			<rect id="Icons/Contrast" width="30.000000" height="30.000000" fill="white" fill-opacity="0"/>
		</clipPath>
	</defs>
	<rect id="Icons/Contrast" width="30.000000" height="30.000000" fill="#FFFFFF" fill-opacity="0"/>
	<rect id="Icons/Contrast" width="30.000000" height="30.000000" fill="#FFFFFF" fill-opacity="0"/>
	<rect id="Icons/Contrast" width="30.000000" height="30.000000" fill="#FFFFFF" fill-opacity="0"/>
	<rect id="Icons/Contrast" width="30.000000" height="30.000000" fill="#FFFFFF" fill-opacity="0"/>
	<g clip-path="url(#clip2_6707)">
		<path id="Vector" d="M15.5 27C8.59619 27 3 21.4038 3 14.5C3 7.59619 8.59619 2 15.5 2C22.4038 2 28 7.59619 28 14.5C28 21.4038 22.4038 27 15.5 27ZM7.16113 20.0312C7.98291 21.2607 9.06689 22.2925 10.3352 23.0522C11.6035 23.8125 13.0244 24.2817 14.4958 24.4263C15.9673 24.5713 17.4526 24.3877 18.8447 23.8896C20.2368 23.3916 21.5012 22.5908 22.5466 21.5454C23.592 20.4995 24.3926 19.2354 24.8909 17.8433C25.3889 16.4512 25.572 14.9658 25.427 13.4941C25.2822 12.0229 24.8127 10.6021 24.0525 9.3335C23.2925 8.06543 22.2605 6.98145 21.0312 6.16016C21.5703 8.08301 21.5876 10.1143 21.0813 12.0459C20.5752 13.9775 19.564 15.7397 18.1514 17.1514C16.74 18.5635 14.978 19.5747 13.0466 20.0811C11.1152 20.5874 9.08374 20.5698 7.16113 20.0312Z" fill="#2B2B2B" fill-opacity="1.000000" fill-rule="nonzero"/>
	</g>
</svg>
